<svg width="29" height="29" viewBox="0 0 29 29" fill="none" xmlns="http://www.w3.org/2000/svg">
<path d="M16.8906 14.5C16.8906 15.8202 15.8202 16.8906 14.5 16.8906C13.1798 16.8906 12.1094 15.8202 12.1094 14.5C12.1094 13.1798 13.1798 12.1094 14.5 12.1094C15.8202 12.1094 16.8906 13.1798 16.8906 14.5Z" fill="white"/>
<path d="M18.5374 7.2749H10.4624C8.70471 7.2749 7.2749 8.70471 7.2749 10.4624V18.5374C7.2749 20.2951 8.70471 21.7249 10.4624 21.7249H18.5374C20.2951 21.7249 21.7249 20.2951 21.7249 18.5374V10.4624C21.7249 8.70471 20.2951 7.2749 18.5374 7.2749ZM14.4999 18.4843C12.3029 18.4843 10.5155 16.6969 10.5155 14.4999C10.5155 12.3029 12.3029 10.5155 14.4999 10.5155C16.6969 10.5155 18.4843 12.3029 18.4843 14.4999C18.4843 16.6969 16.6969 18.4843 14.4999 18.4843ZM19.0687 10.728C18.6285 10.728 18.2718 10.3713 18.2718 9.93115C18.2718 9.491 18.6285 9.13428 19.0687 9.13428C19.5088 9.13428 19.8655 9.491 19.8655 9.93115C19.8655 10.3713 19.5088 10.728 19.0687 10.728Z" fill="white"/>
<path d="M20.928 0.899902H8.07178C4.11729 0.899902 0.899902 4.11729 0.899902 8.07178V20.928C0.899902 24.8825 4.11729 28.0999 8.07178 28.0999H20.928C24.8825 28.0999 28.0999 24.8825 28.0999 20.928V8.07178C28.0999 4.11729 24.8825 0.899902 20.928 0.899902ZM23.3187 18.5374C23.3187 21.1737 21.1737 23.3187 18.5374 23.3187H10.4624C7.82607 23.3187 5.68115 21.1737 5.68115 18.5374V10.4624C5.68115 7.82607 7.82607 5.68115 10.4624 5.68115H18.5374C21.1737 5.68115 23.3187 7.82607 23.3187 10.4624V18.5374Z" fill="white"/>
</svg>
