<svg width="28" height="28" viewBox="0 0 28 28" fill="none" xmlns="http://www.w3.org/2000/svg">
<path d="M26.1036 1.89612C25.1064 0.898704 23.905 0.399902 22.5002 0.399902H5.50012C4.09538 0.399902 2.89397 0.898704 1.89636 1.89612C0.898948 2.89372 0.400146 4.09508 0.400146 5.49987V22.4998C0.400146 23.9045 0.898948 25.106 1.89636 26.1036C2.89397 27.1012 4.09538 27.6 5.50012 27.6H22.5001C23.9048 27.6 25.1062 27.1012 26.1034 26.1036C27.101 25.106 27.5998 23.9046 27.5998 22.4998V5.49987C27.5997 4.09508 27.1009 2.89354 26.1036 1.89612ZM21.2074 10.8656C21.2192 10.9719 21.2253 11.131 21.2253 11.3438C21.2253 12.3355 21.0805 13.3302 20.7914 14.3275C20.5023 15.3253 20.0595 16.2815 19.4631 17.1963C18.8673 18.1111 18.156 18.9201 17.3297 19.6224C16.5032 20.3246 15.5117 20.8856 14.3545 21.3044C13.1979 21.7238 11.958 21.9335 10.6359 21.9335C8.58193 21.9335 6.68125 21.3782 4.93396 20.269C5.21728 20.3042 5.51258 20.322 5.81936 20.322C7.53123 20.322 9.07186 19.7908 10.4414 18.728C9.6387 18.7165 8.92139 18.4688 8.28986 17.9842C7.65814 17.5003 7.21851 16.8865 6.97053 16.1427C7.27737 16.1898 7.50754 16.2132 7.66099 16.2132C7.92069 16.2132 8.22181 16.1661 8.56407 16.0718C7.7023 15.9063 6.97636 15.4788 6.38607 14.7881C5.79566 14.0974 5.50055 13.3095 5.50055 12.4241V12.3887C6.12607 12.6836 6.71635 12.8371 7.27129 12.849C6.19696 12.1288 5.65983 11.0959 5.65983 9.75011C5.65983 9.08893 5.83089 8.46328 6.17327 7.873C7.10581 9.01822 8.23937 9.93302 9.5732 10.6177C10.9072 11.3023 12.3358 11.6862 13.8586 11.7688C13.7997 11.5445 13.7701 11.261 13.7701 10.9188C13.7701 9.89152 14.1331 9.01512 14.8592 8.289C15.5851 7.56294 16.4618 7.19978 17.4887 7.19978C18.5751 7.19978 19.4784 7.58948 20.1984 8.3687C21.0131 8.21525 21.8044 7.91406 22.5715 7.46562C22.2765 8.3744 21.7272 9.06511 20.9248 9.53736C21.6919 9.43093 22.4059 9.23034 23.0669 8.93523C22.5711 9.69075 21.9511 10.3341 21.2074 10.8656Z" fill="white"/>
</svg>
